<?xml version="1.0" encoding="UTF-8" standalone="no"?>
<!-- Generator: Adobe Illustrator 16.0.0, SVG Export Plug-In . SVG Version: 6.00 Build 0)  -->

<svg
   xmlns:dc="http://purl.org/dc/elements/1.1/"
   xmlns:cc="http://creativecommons.org/ns#"
   xmlns:rdf="http://www.w3.org/1999/02/22-rdf-syntax-ns#"
   xmlns:svg="http://www.w3.org/2000/svg"
   xmlns="http://www.w3.org/2000/svg"
   xmlns:sodipodi="http://sodipodi.sourceforge.net/DTD/sodipodi-0.dtd"
   xmlns:inkscape="http://www.inkscape.org/namespaces/inkscape"
   version="1.1"
   id="Capa_1"
   x="0px"
   y="0px"
   viewBox="0 0 120 120"
   xml:space="preserve"
   inkscape:version="0.91 r13725"
   sodipodi:docname="brain.svg"><metadata
     id="metadata75"><rdf:RDF><cc:Work
         rdf:about=""><dc:format>image/svg+xml</dc:format><dc:type
           rdf:resource="http://purl.org/dc/dcmitype/StillImage" /><dc:title></dc:title></cc:Work></rdf:RDF></metadata><defs
     id="defs73" /><sodipodi:namedview
     pagecolor="#ffffff"
     bordercolor="#666666"
     borderopacity="1"
     objecttolerance="10"
     gridtolerance="10"
     guidetolerance="10"
     inkscape:pageopacity="0"
     inkscape:pageshadow="2"
     inkscape:window-width="640"
     inkscape:window-height="480"
     id="namedview71"
     showgrid="false"
     inkscape:zoom="4.7664794"
     inkscape:cx="64.19783"
     inkscape:cy="70.072683"
     inkscape:current-layer="Capa_1" /><g
     id="g3"
     transform="matrix(0.62993118,0,0,0.62993118,1.9876353e-4,5.47909e-6)"><g
       id="g5"><path
         d="m 46.955,148.69 c 9.833,-0.52 16.05,-3.731 18.483,-9.559 1.039,-2.474 1.146,-5.117 0.812,-7.683 2.262,1.192 5.159,2.304 8.15,2.304 0.583,0 1.161,-0.038 1.744,-0.126 3.03,-0.459 5.597,-2.205 7.415,-5.023 0.833,-1.303 0.458,-3.037 -0.84,-3.875 -1.298,-0.819 -3.037,-0.448 -3.869,0.844 -0.964,1.499 -2.088,2.287 -3.535,2.517 -3.621,0.574 -8.321,-2.561 -9.84,-3.809 -0.492,-0.416 -1.081,-0.574 -1.683,-0.59 -1.053,-2.102 -2.234,-3.87 -3.198,-4.958 C 49.456,106.271 48.986,96.024 48.974,95.87 c -0.035,-1.538 -1.228,-2.559 -2.859,-2.729 -1.539,0.032 -2.769,1.304 -2.744,2.855 0.012,0.497 0.381,12.306 13.043,26.468 2.353,2.654 5.912,9.62 3.859,14.528 -1.904,4.558 -8.449,5.85 -13.603,6.123 -1.541,0.088 -2.729,1.4 -2.65,2.933 0.08,1.506 1.305,2.665 2.79,2.665 l 0.145,-0.023 z"
         id="path7"
         inkscape:connector-curvature="0" /><path
         d="m 46.238,89.557 c -0.016,-0.021 3.776,-0.572 7.711,8.747 0.281,0.679 2.886,6.671 8.237,8.258 0.7,0.208 1.557,0.366 2.532,0.366 1.784,0 3.967,-0.523 6.388,-2.205 1.283,-0.876 1.597,-2.627 0.711,-3.89 -0.873,-1.287 -2.626,-1.591 -3.889,-0.713 -1.55,1.068 -2.919,1.429 -4.137,1.068 -2.379,-0.69 -4.161,-3.864 -4.66,-5.041 -6.012,-14.284 -13.655,-12.22 -14.503,-11.953 -1.466,0.49 -2.337,2.096 -1.849,3.571 0.481,1.467 1.975,2.263 3.459,1.792 z"
         id="path9"
         inkscape:connector-curvature="0" /><path
         d="m 72.759,73.453 c -0.583,1.438 0.096,3.073 1.518,3.661 l 1.071,0.211 c 1.093,0 2.142,-0.648 2.59,-1.729 8.059,-19.466 1.064,-46.698 0.772,-47.847 -0.392,-1.501 -1.905,-2.432 -3.413,-1.995 -1.502,0.386 -2.398,1.92 -1.994,3.417 0.054,0.268 6.801,26.542 -0.544,44.282 z"
         id="path11"
         inkscape:connector-curvature="0" /><path
         d="m 69.946,147.022 c -1.518,-0.229 -2.958,0.799 -3.198,2.33 -0.241,1.532 0.808,2.966 2.332,3.207 0.117,0.011 10.555,1.768 13.296,12.214 0.329,1.258 1.466,2.09 2.706,2.09 l 0.711,-0.099 c 1.502,-0.394 2.386,-1.931 1.99,-3.414 -3.653,-13.937 -17.26,-16.235 -17.837,-16.328 z"
         id="path13"
         inkscape:connector-curvature="0" /><path
         d="m 74.743,171.711 c -7.101,1.631 -18.223,-11.906 -23.595,-20.782 -0.808,-1.325 -2.521,-1.74 -3.85,-0.941 -1.322,0.804 -1.749,2.512 -0.952,3.847 1.534,2.544 14.675,23.601 27.26,23.601 0.789,0 1.562,-0.087 2.342,-0.251 1.52,-0.34 2.46,-1.834 2.135,-3.348 -0.33,-1.513 -1.822,-2.448 -3.34,-2.126 z"
         id="path15"
         inkscape:connector-curvature="0" /><path
         d="m 45.517,136.368 c 1.378,0 2.582,-1.023 2.773,-2.43 0.194,-1.535 -0.875,-2.944 -2.41,-3.151 -6.106,-0.811 -9.155,-11.667 -9.886,-16.159 1.272,-19.617 -5.72,-26.856 -6.026,-27.16 -1.071,-1.074 -2.813,-1.081 -3.908,-0.017 -1.097,1.06 -1.125,2.832 -0.09,3.945 0.058,0.063 5.577,6.17 4.412,23.166 l 0.026,0.602 c 0.122,0.799 3.04,19.622 14.729,21.171 l 0.38,0.033 z"
         id="path17"
         inkscape:connector-curvature="0" /><path
         d="m 57.872,86.37 c -0.628,1.417 0.011,3.07 1.423,3.7 l 1.137,0.24 c 1.064,0 2.096,-0.618 2.557,-1.664 2.918,-6.575 -0.143,-18.112 -0.506,-19.412 l -0.285,-0.679 c -7.324,-12.372 2.573,-24.826 2.99,-25.349 0.567,-0.694 0.701,-1.567 0.523,-2.38 0.953,1.103 1.984,2.213 3.187,3.322 0.544,0.497 1.223,0.747 1.907,0.747 0.761,0 1.505,-0.304 2.055,-0.898 1.053,-1.138 0.983,-2.914 -0.145,-3.962 -5.089,-4.7 -7.496,-9.138 -6.992,-12.826 0.625,-4.588 5.58,-7.198 5.71,-7.267 1.373,-0.695 1.932,-2.375 1.245,-3.754 -0.696,-1.379 -2.378,-1.951 -3.763,-1.256 -0.311,0.156 -7.653,3.907 -8.727,11.448 -0.583,4.057 0.787,8.265 3.999,12.569 -1.132,-0.528 -2.5,-0.298 -3.335,0.717 -0.524,0.638 -12.628,15.757 -3.673,31.407 0.805,3.1 2.406,11.431 0.693,15.297 z"
         id="path19"
         inkscape:connector-curvature="0" /><path
         d="m 85.619,85.467 c -0.974,3.571 -8.813,3.667 -12.472,3.155 -1.49,-0.161 -2.949,0.851 -3.168,2.382 -0.205,1.531 0.854,2.948 2.389,3.166 0.504,0.071 2.22,0.291 4.438,0.291 4.989,0 12.485,-1.109 14.228,-7.52 0.396,-1.497 -0.472,-3.031 -1.967,-3.441 -1.493,-0.385 -3.033,0.484 -3.448,1.967 z"
         id="path21"
         inkscape:connector-curvature="0" /><path
         d="M 172.978,92.354 C 177.18,66.501 166.553,57.861 162.847,55.687 164.281,38.765 154.754,31.541 151.654,29.67 151.379,26.567 150.502,23.653 148.943,20.964 142.957,10.693 129.561,7.384 127.659,6.955 123.251,2.364 118.551,0 113.599,0 l -0.261,0.005 C 104.832,0.145 98.337,7.168 95.264,11.234 92.187,7.168 85.692,0.145 77.186,0.005 L 76.922,0 C 71.977,0 67.273,2.364 62.87,6.955 60.964,7.384 47.573,10.692 41.576,20.964 c -1.557,2.688 -2.449,5.603 -2.706,8.706 -3.1,1.871 -12.63,9.094 -11.195,26.011 -3.688,2.175 -14.334,10.811 -10.131,36.668 -1.037,1.934 -7.571,14.832 -4.086,27.199 0.812,2.851 2.164,5.395 3.885,7.71 -0.325,3.235 -0.731,18.518 18.037,32.558 7.16,5.365 13.907,13.188 20.049,23.229 l 0.604,0.705 c 0.385,0.328 8.349,6.747 17.885,6.747 1.793,0 3.647,-0.229 5.512,-0.783 6.624,-1.903 11.901,-7.286 15.804,-15.945 3.896,8.659 9.182,14.042 15.802,15.945 1.872,0.554 3.722,0.783 5.511,0.783 9.538,-0.005 17.499,-6.419 17.895,-6.747 l 0.603,-0.705 c 6.14,-10.035 12.879,-17.855 20.05,-23.229 18.733,-14.02 18.346,-29.297 18.022,-32.553 1.746,-2.314 3.092,-4.864 3.891,-7.715 3.543,-12.349 -2.98,-25.238 -4.03,-27.194 z m -80.966,74.487 c -3.368,9.871 -8.09,15.754 -14.074,17.488 -7.986,2.343 -16.227,-3.354 -17.986,-4.662 -6.434,-10.43 -13.572,-18.62 -21.197,-24.339 -11.287,-8.45 -14.619,-17.122 -15.55,-22.496 0.9,0.641 1.759,1.298 2.775,1.872 l 1.365,0.345 c 0.981,0 1.933,-0.513 2.447,-1.434 0.764,-1.347 0.282,-3.054 -1.069,-3.814 -13.756,-7.688 -11.286,-21.691 -8.517,-29.499 l 1.3,0.36 0.628,-0.07 c 1.513,-0.346 2.449,-1.855 2.101,-3.366 -5.279,-22.864 0.783,-32.082 4.433,-35.387 0.696,3.204 1.707,6.651 3.199,10.444 0.437,1.105 1.497,1.77 2.605,1.77 l 1.037,-0.194 c 1.441,-0.572 2.148,-2.203 1.576,-3.63 -8.194,-20.701 -1.924,-30.266 2.208,-33.987 0.25,1.346 0.502,2.692 0.962,4.093 0.376,1.182 1.48,1.937 2.668,1.937 l 0.856,-0.134 c 1.48,-0.476 2.276,-2.058 1.796,-3.53 -1.84,-5.694 -1.556,-10.676 0.849,-14.826 2.481,-4.293 6.85,-7.122 10.634,-8.887 -0.241,1.108 0.194,2.29 1.214,2.936 1.29,0.823 3.032,0.454 3.861,-0.856 C 66.935,9.41 71.922,5.582 76.932,5.582 l 0.145,0.005 c 7.382,0.112 13.372,8.356 14.922,10.698 l 0.013,150.556 0,0 z m 59.772,-11.512 c -7.634,5.724 -14.764,13.914 -21.198,24.35 -1.754,1.313 -9.978,6.984 -17.956,4.663 -5.981,-1.73 -10.726,-7.606 -14.102,-17.484 l 0,-150.563 c 2.223,-3.447 8.208,-10.574 14.912,-10.681 l 0.146,-0.006 c 5.019,0 9.987,3.839 14.809,11.393 0.832,1.311 2.578,1.685 3.862,0.856 1.019,-0.643 1.447,-1.828 1.215,-2.936 3.792,1.77 8.143,4.593 10.627,8.881 2.408,4.148 2.688,9.138 0.849,14.827 -0.477,1.474 0.328,3.053 1.794,3.53 l 0.859,0.134 c 1.189,0 2.282,-0.756 2.665,-1.938 0.459,-1.401 0.711,-2.752 0.968,-4.096 4.121,3.727 10.402,13.284 2.212,33.989 -0.569,1.434 0.136,3.064 1.575,3.631 l 1.03,0.197 c 1.115,0 2.166,-0.667 2.605,-1.771 1.508,-3.79 2.504,-7.234 3.204,-10.436 3.645,3.305 9.707,12.518 4.435,35.377 -0.347,1.51 0.589,3.009 2.102,3.365 l 0.627,0.071 1.254,-0.335 c 1.621,4.613 3.162,11.345 1.378,17.681 -1.39,4.958 -4.706,8.925 -9.838,11.786 -1.345,0.756 -1.834,2.464 -1.073,3.82 0.515,0.919 1.475,1.434 2.451,1.434 l 1.368,-0.351 c 1.013,-0.569 1.866,-1.23 2.759,-1.865 -0.914,5.365 -4.262,14.039 -15.539,22.477 z"
         id="path23"
         inkscape:connector-curvature="0" /><path
         d="m 119.125,19.949 c 0.05,0.027 5.031,2.634 5.686,7.228 0.542,3.691 -1.882,8.143 -6.98,12.859 -1.129,1.054 -1.205,2.824 -0.149,3.962 0.561,0.594 1.298,0.898 2.06,0.898 0.677,0 1.35,-0.25 1.904,-0.747 1.196,-1.113 2.225,-2.22 3.188,-3.317 -0.181,0.812 -0.055,1.686 0.524,2.38 0.106,0.124 10.355,12.911 2.988,25.349 l -0.285,0.673 c -0.35,1.289 -3.419,12.837 -0.503,19.412 0.46,1.045 1.488,1.664 2.562,1.664 l 1.132,-0.24 c 1.412,-0.63 2.053,-2.289 1.423,-3.7 -1.546,-3.48 -0.421,-11.073 0.695,-15.292 8.952,-15.655 -3.161,-30.769 -3.688,-31.407 -0.813,-1.009 -2.194,-1.245 -3.325,-0.717 3.218,-4.303 4.586,-8.512 4.004,-12.569 -1.066,-7.541 -8.416,-11.291 -8.728,-11.447 -1.383,-0.689 -3.064,-0.124 -3.76,1.256 -0.69,1.379 -0.132,3.059 1.252,3.755 z"
         id="path25"
         inkscape:connector-curvature="0" /><path
         d="m 143.881,143.099 c -5.155,-0.274 -11.703,-1.55 -13.604,-6.124 -2.045,-4.914 1.518,-11.88 3.863,-14.522 12.667,-14.156 13.022,-25.981 13.034,-26.474 0.033,-1.541 -1.193,-2.807 -2.726,-2.846 -1.579,-0.079 -2.823,1.183 -2.877,2.715 0,0.109 -0.447,10.38 -11.612,22.873 -0.975,1.071 -2.156,2.85 -3.201,4.946 -0.591,0.022 -1.188,0.186 -1.69,0.602 -1.514,1.247 -6.188,4.366 -9.828,3.81 -1.453,-0.231 -2.583,-1.041 -3.535,-2.524 -0.837,-1.3 -2.582,-1.679 -3.868,-0.842 -1.302,0.837 -1.689,2.572 -0.843,3.875 1.816,2.83 4.383,4.568 7.414,5.028 0.58,0.093 1.162,0.119 1.736,0.119 2.997,0 5.887,-1.104 8.152,-2.303 -0.34,2.566 -0.22,5.197 0.817,7.677 2.428,5.834 8.644,9.04 18.481,9.565 l 0.139,0.005 c 1.494,0 2.718,-1.159 2.801,-2.665 0.077,-1.514 -1.11,-2.834 -2.653,-2.915 z"
         id="path27"
         inkscape:connector-curvature="0" /><path
         d="m 126.759,101.199 c -1.229,0.346 -2.577,0.011 -4.137,-1.072 -1.257,-0.884 -3.021,-0.569 -3.896,0.712 -0.868,1.27 -0.564,3.015 0.711,3.896 2.432,1.675 4.603,2.199 6.396,2.199 0.975,0 1.83,-0.153 2.53,-0.36 5.346,-1.576 7.96,-7.584 8.232,-8.241 3.814,-9.048 7.427,-8.75 7.694,-8.769 1.45,0.416 2.922,-0.392 3.403,-1.809 0.481,-1.475 -0.312,-3.059 -1.766,-3.546 -0.858,-0.281 -8.488,-2.345 -14.502,11.962 -0.496,1.154 -2.29,4.328 -4.665,5.028 z"
         id="path29"
         inkscape:connector-curvature="0" /><path
         d="m 115.191,77.331 1.074,-0.211 c 1.426,-0.588 2.106,-2.224 1.514,-3.661 -7.332,-17.705 -0.589,-44.014 -0.536,-44.277 0.396,-1.501 -0.504,-3.031 -2.003,-3.417 -1.505,-0.427 -3.021,0.503 -3.404,1.995 -0.306,1.149 -7.28,28.38 0.774,47.847 0.444,1.075 1.47,1.724 2.581,1.724 z"
         id="path31"
         inkscape:connector-curvature="0" /><path
         d="m 121.473,152.559 c 1.526,-0.241 2.567,-1.675 2.325,-3.193 -0.243,-1.535 -1.718,-2.562 -3.198,-2.333 -0.58,0.093 -14.181,2.391 -17.852,16.328 -0.395,1.494 0.497,3.021 1.986,3.415 l 0.713,0.099 c 1.251,0 2.39,-0.832 2.709,-2.091 2.723,-10.32 12.83,-12.149 13.317,-12.225 z"
         id="path33"
         inkscape:connector-curvature="0" /><path
         d="m 143.235,149.988 c -1.303,-0.794 -3.043,-0.378 -3.848,0.941 -5.373,8.876 -16.524,22.436 -23.594,20.782 -1.521,-0.322 -3.011,0.612 -3.348,2.125 -0.341,1.519 0.611,3.008 2.121,3.353 0.788,0.159 1.554,0.252 2.353,0.252 12.588,0 25.724,-21.057 27.25,-23.602 0.817,-1.335 0.396,-3.053 -0.934,-3.851 z"
         id="path35"
         inkscape:connector-curvature="0" /><path
         d="m 164.549,91.401 c 1.066,-1.097 1.051,-2.851 -0.027,-3.934 -1.088,-1.092 -2.867,-1.092 -3.963,0 -0.306,0.304 -7.299,7.543 -6.019,27.16 -0.688,4.246 -3.797,15.349 -9.894,16.159 -1.519,0.207 -2.603,1.616 -2.405,3.151 0.191,1.406 1.396,2.43 2.772,2.43 l 0.374,-0.02 c 11.691,-1.562 14.604,-20.386 14.73,-21.185 l 0.025,-0.591 c -1.148,-16.863 4.264,-23.002 4.407,-23.17 z"
         id="path37"
         inkscape:connector-curvature="0" /><path
         d="m 118.181,94.176 c 1.526,-0.219 2.597,-1.636 2.386,-3.166 -0.232,-1.538 -1.682,-2.583 -3.165,-2.383 -2.373,0.343 -11.397,0.791 -12.486,-3.154 -0.405,-1.494 -1.938,-2.354 -3.437,-1.965 -1.499,0.408 -2.375,1.948 -1.97,3.439 1.745,6.411 9.236,7.519 14.232,7.519 2.199,-0.005 3.935,-0.224 4.44,-0.29 z"
         id="path39"
         inkscape:connector-curvature="0" /></g></g><g
     id="g41"
     transform="translate(0,-70.496994)" /><g
     id="g43"
     transform="translate(0,-70.496994)" /><g
     id="g45"
     transform="translate(0,-70.496994)" /><g
     id="g47"
     transform="translate(0,-70.496994)" /><g
     id="g49"
     transform="translate(0,-70.496994)" /><g
     id="g51"
     transform="translate(0,-70.496994)" /><g
     id="g53"
     transform="translate(0,-70.496994)" /><g
     id="g55"
     transform="translate(0,-70.496994)" /><g
     id="g57"
     transform="translate(0,-70.496994)" /><g
     id="g59"
     transform="translate(0,-70.496994)" /><g
     id="g61"
     transform="translate(0,-70.496994)" /><g
     id="g63"
     transform="translate(0,-70.496994)" /><g
     id="g65"
     transform="translate(0,-70.496994)" /><g
     id="g67"
     transform="translate(0,-70.496994)" /><g
     id="g69"
     transform="translate(0,-70.496994)" /></svg>
