<svg height="512pt" viewBox="0 0 512 512" width="512pt" xmlns="http://www.w3.org/2000/svg"><path d="m466.460938 95.371094c-5.550782-9.703125-11.949219-19.257813-18.132813-28.5-13.703125-20.472656-27.738281-41.628906-34.824219-66.871094h-315.0625c-7.074218 25.242188-21.121094 46.398438-34.816406 66.871094-6.1875 9.242187-12.589844 18.804687-18.136719 28.5-35.6875 62.324218-50.488281 140.550781-44.007812 232.492187 5.324219 75.382813 28.992187 140.535157 66.707031 184.136719h143.789062c3.402344-16.355469 11.996094-58.796875 19.785157-105.554688-1.855469 1.296876-3.664063 2.605469-5.722657 3.878907-5.4375 3.363281-11.035156 6.472656-16.621093 9.261719-1.308594.648437-2.695313.949218-4.070313.949218-3.355468 0-6.589844-1.855468-8.191406-5.074218-2.246094-4.515626-.402344-10.011719 4.117188-12.261719 5.089843-2.523438 10.191406-5.367188 15.15625-8.4375 2.507812-1.554688 4.835937-3.128907 6.984374-4.738281 3.375-2.511719 7.808594-2.21875 10.980469.238281 3.980469-25.058594 7.535157-50.613281 9.804688-73.5-2.113281 3.148437-4.355469 6.226562-6.851563 9.152343-22.597656 26.496094-46.910156 40.367188-72.261718 41.207032-.816407.027344-1.621094.046875-2.425782.046875-32.328125 0-53.730468-21.566407-54.644531-22.507813-3.519531-3.621094-3.449219-9.410156.164063-12.929687 3.621093-3.519531 9.40625-3.457031 12.925781.164062.15625.164063 18.085937 17.691407 43.59375 16.953125 19.921875-.75 39.679687-12.453125 58.734375-34.789062 16.785156-19.6875 22.996094-46.226563 23.398437-74.023438-.039062-2.265625-.019531-4.535156.007813-6.808594-1.253906-66.230468-33.199219-136.96875-33.671875-137.996093-2.105469-4.589844-.09375-10.019531 4.496093-12.121094 4.601563-2.09375 10.019532-.09375 12.125 4.496094 1.34375 2.945312 16.15625 35.804687 26.183594 78.027343 10.03125-42.230468 24.832032-75.082031 26.1875-78.027343 2.101563-4.589844 7.53125-6.589844 12.121094-4.496094 4.589844 2.101563 6.601562 7.523437 4.507812 12.121094-.476562 1.042969-32.867187 72.90625-33.65625 139.558593.011719 1.445313.039063 2.886719.019532 4.324219.265625 28.140625 6.410156 55.058594 23.371094 74.945313 19.042968 22.324218 38.808593 34.039062 58.730468 34.789062 25.546875.527344 43.429688-16.804687 43.613282-16.980468 3.539062-3.574219 9.324218-3.621094 12.917968-.101563 3.59375 3.53125 3.667969 9.289063.15625 12.894531-.921875.941406-22.316406 22.507813-54.65625 22.507813-.796875 0-1.601562-.019531-2.414062-.046875-25.351563-.839844-49.671875-14.699219-72.265625-41.207032-2.496094-2.933593-4.734375-6.003906-6.855469-9.152343 1.875 18.925781 4.625 39.683593 7.78125 60.472656 3.8125 5.15625 8.777344 9.917969 15.265625 14.4375 4.144531 2.878906 5.167969 8.574219 2.289063 12.726563-1.773438 2.550781-4.617188 3.921874-7.515626 3.921874-1.800781 0-3.621093-.53125-5.210937-1.644531-.058594-.039062-.101563-.082031-.15625-.121093 7.789063 46.710937 16.375 89.089843 19.765625 105.425781h143.789062c37.714844-43.601563 61.386719-108.742188 66.707032-184.136719 6.492187-91.921875-8.3125-170.148438-44.003906-232.472656zm-331.683594 325.101562c8.566406-.304687 17.207031-1.335937 25.691406-3.082031 4.953125-.988281 9.773438 2.175781 10.785156 7.113281 1.015625 4.945313-2.175781 9.78125-7.121094 10.796875-9.480468 1.945313-19.136718 3.097657-28.71875 3.4375-.109374.007813-.21875.007813-.328124.007813-4.898438 0-8.949219-3.882813-9.132813-8.820313-.175781-5.039062 3.765625-9.273437 8.824219-9.453125zm-105.464844-73.65625c-.171875.019532-.335938.019532-.511719.019532-4.816406 0-8.851562-3.777344-9.125-8.640626-.171875-3.109374-.320312-6.199218-.457031-9.28125-.265625-6.117187-.484375-12.25-.640625-18.394531-.125-5.046875 3.859375-9.242187 8.90625-9.371093 5.011719-.210938 9.242187 3.855468 9.371094 8.914062.15625 6.015625.367187 12.039062.632812 18.054688.136719 3.007812.28125 6.046874.445313 9.082031.285156 5.035156-3.582032 9.34375-8.621094 9.617187zm7.507812-82.011718c-.128906 4.964843-4.199218 8.914062-9.144531 8.914062-.074219 0-.15625 0-.226562 0-5.046875-.136719-9.035157-4.324219-8.914063-9.371094.226563-9.269531.621094-18.515625 1.179688-27.722656.308594-5.035156 4.679687-8.8125 9.679687-8.574219 5.039063.300781 8.878907 4.644531 8.566407 9.683594-.527344 8.976563-.914063 18.019531-1.140626 27.070313zm5.375-71.953126c-.59375 4.605469-4.535156 7.960938-9.050781 7.960938-.394531 0-.785156-.027344-1.1875-.082031-5.003906-.640625-8.542969-5.230469-7.890625-10.238281 1.214844-9.355469 2.640625-18.617188 4.230469-27.539063.886719-4.972656 5.652344-8.285156 10.605469-7.398437 4.964844.890624 8.285156 5.632812 7.398437 10.609374-1.546875 8.636719-2.925781 17.617188-4.105469 26.6875zm56.4375 234.21875c-1.042968 4.144532-4.761718 6.914063-8.859374 6.914063-.738282 0-1.488282-.09375-2.238282-.273437-17.144531-4.316407-27.476562-9.828126-27.90625-10.066407-4.441406-2.398437-6.097656-7.945312-3.699218-12.378906 2.394531-4.4375 7.925781-6.117187 12.378906-3.714844.292968.15625 9.113281 4.765625 23.695312 8.429688 4.894532 1.226562 7.863282 6.191406 6.628906 11.089843zm54.089844-192.042968c-1.78125 1.78125-4.121094 2.679687-6.464844 2.679687-2.339843 0-4.679687-.898437-6.460937-2.679687l-11.824219-11.824219v41.929687c0 5.058594-4.09375 9.144532-9.140625 9.144532s-9.144531-4.085938-9.144531-9.144532v-41.929687l-11.820312 11.824219c-1.785157 1.78125-4.125 2.679687-6.464844 2.679687s-4.679688-.898437-6.464844-2.679687c-3.574219-3.574219-3.574219-9.355469 0-12.929688l27.429688-27.417968c.839843-.851563 1.855468-1.519532 2.980468-1.984376 2.230469-.925781 4.753906-.925781 6.984375 0 1.125.464844 2.128907 1.132813 2.972657 1.984376l27.425781 27.417968c3.566406 3.574219 3.566406 9.355469-.007813 12.929688zm249.535156-11.824219v41.929687c0 5.058594-4.09375 9.144532-9.140624 9.144532-5.046876 0-9.144532-4.085938-9.144532-9.144532v-41.929687l-11.820312 11.824219c-1.785156 1.78125-4.125 2.679687-6.464844 2.679687s-4.679688-.898437-6.464844-2.679687c-3.574218-3.574219-3.574218-9.355469 0-12.929688l27.429688-27.417968c.839844-.851563 1.855468-1.519532 2.980468-1.984376 2.230469-.925781 4.753907-.925781 6.984376 0 1.125.464844 2.132812 1.132813 2.972656 1.984376l27.429687 27.417968c3.574219 3.574219 3.574219 9.355469 0 12.929688-1.773437 1.78125-4.125 2.679687-6.464843 2.679687-2.339844 0-4.683594-.898437-6.464844-2.679687zm-49.542968 212.875c-.558594 0-1.125-.054687-1.691406-.15625-9.382813-1.746094-18.753907-4.296875-27.851563-7.550781-4.753906-1.710938-7.222656-6.941406-5.519531-11.695313 1.707031-4.753906 6.949218-7.222656 11.691406-5.523437 8.191406 2.9375 16.605469 5.222656 25.035156 6.785156 4.964844.933594 8.238282 5.707031 7.3125 10.671875-.820312 4.394531-4.660156 7.46875-8.976562 7.46875zm74.878906-3.210937c-9.214844 2.515624-18.804688 4.269531-28.507812 5.183593-.292969.039063-.585938.046875-.878907.046875-4.660156 0-8.636719-3.546875-9.085937-8.273437-.484375-5.027344 3.207031-9.492188 8.226562-9.964844 8.660156-.832031 17.207032-2.386719 25.417969-4.636719 4.890625-1.296875 9.902344 1.546875 11.238281 6.410156 1.335938 4.863282-1.535156 9.902344-6.410156 11.234376zm42.167969-240.015626c-1.179688-9.070312-2.5625-18.050781-4.097657-26.679687-.886718-4.972656 2.421876-9.71875 7.398438-10.605469 4.953125-.886718 9.71875 2.421875 10.605469 7.394532 1.589843 8.925781 3.015625 18.175781 4.230469 27.539062.652343 5.011719-2.878907 9.601562-7.886719 10.242188-.394531.054687-.796875.082031-1.191407.082031-4.535156-.011719-8.457031-3.367188-9.058593-7.972657zm22.964843 136.0625c-.136718 3.082032-.28125 6.171876-.457031 9.28125-.265625 4.863282-4.296875 8.640626-9.125 8.640626-.171875 0-.335937 0-.5-.019532-5.046875-.265625-8.90625-4.582031-8.632812-9.628906.164062-3.035156.320312-6.070312.449219-9.078125.265624-6.007813.476562-12.03125.628906-18.058594.128906-5.054687 4.324218-9.148437 9.371094-8.914062 5.046874.140625 9.035156 4.335937 8.90625 9.371093-.15625 6.15625-.363282 12.289063-.640626 18.40625zm-8.21875-55.203124c-.082031 0-.15625 0-.238281 0-4.945312 0-9.003906-3.949219-9.132812-8.914063-.226563-9.054687-.601563-18.09375-1.152344-27.082031-.308594-5.039063 3.53125-9.371094 8.578125-9.683594 5.074219-.226562 9.371094 3.53125 9.679688 8.578125.566406 9.207031.953124 18.457031 1.191406 27.71875.109375 5.066406-3.878906 9.253906-8.925782 9.382813zm0 0"/></svg>