<?xml version="1.0" encoding="iso-8859-1"?>
<!-- Generator: Adobe Illustrator 19.0.0, SVG Export Plug-In . SVG Version: 6.00 Build 0)  -->
<svg version="1.1" id="Layer_1" xmlns="http://www.w3.org/2000/svg" xmlns:xlink="http://www.w3.org/1999/xlink" x="0px" y="0px"
	 viewBox="0 0 512 512" style="enable-background:new 0 0 512 512;" xml:space="preserve">
<path style="fill:#464655;" d="M264.828,264.527c-2.919,0.192-5.86,0.3-8.828,0.3c-2.967,0-5.909-0.108-8.828-0.3v35.611h17.655
	V264.527z"/>
<path style="fill:#707384;" d="M264.828,264.527c69.013-4.544,123.586-61.951,123.586-132.114C388.414,59.284,329.13,0,256,0
	S123.586,59.284,123.586,132.414c0,70.163,54.573,127.57,123.586,132.114c2.919,0.192,5.86,0.3,8.828,0.3
	C258.967,264.828,261.909,264.719,264.828,264.527z M159.476,176.114c-0.061-0.134-0.118-0.267-0.179-0.401
	c-1.921-4.285-3.563-8.723-4.908-13.287c-0.255-0.863-0.499-1.73-0.732-2.602c-1.236-4.625-2.169-9.373-2.772-14.223
	c-0.198-1.589-0.36-3.189-0.487-4.799c-0.076-0.975-0.142-1.954-0.192-2.937c-0.092-1.805-0.138-3.623-0.138-5.451
	c0-0.914,0.011-1.825,0.034-2.734c1.427-56.332,46.83-101.736,103.162-103.162c0.909-0.023,1.821-0.034,2.734-0.034
	c58.504,0,105.931,47.427,105.931,105.931S314.504,238.345,256,238.345c-0.914,0-1.825-0.011-2.734-0.034
	c-4.543-0.115-9.015-0.516-13.398-1.186c-1.586-0.243-3.157-0.524-4.719-0.836c-0.353-0.071-0.706-0.143-1.058-0.217
	c-1.323-0.278-2.637-0.582-3.943-0.909c-2.311-0.579-4.591-1.237-6.839-1.965c-3.368-1.091-6.66-2.347-9.871-3.757
	c-0.712-0.312-1.418-0.632-2.122-0.96c-1.888-0.879-3.747-1.809-5.572-2.794c-0.237-0.128-0.473-0.259-0.71-0.39
	c-1.108-0.609-2.202-1.238-3.285-1.886c-0.516-0.309-1.031-0.622-1.542-0.94c-1.603-0.995-3.177-2.031-4.722-3.108
	c-0.455-0.317-0.906-0.636-1.355-0.959C179.189,207.633,167.164,193.067,159.476,176.114z"/>
<g>
	<path style="fill:#B9EBFF;" d="M234.091,236.071c-1.323-0.278-2.637-0.582-3.943-0.909
		C231.454,235.489,232.767,235.793,234.091,236.071z"/>
	<path style="fill:#B9EBFF;" d="M211.317,228.479c-1.888-0.879-3.747-1.809-5.572-2.794
		C207.57,226.67,209.429,227.599,211.317,228.479z"/>
	<path style="fill:#B9EBFF;" d="M223.31,233.196c-3.368-1.091-6.66-2.347-9.871-3.757
		C216.649,230.849,219.943,232.105,223.31,233.196z"/>
	<path style="fill:#B9EBFF;" d="M239.868,237.124c-1.586-0.243-3.157-0.524-4.719-0.836
		C236.711,236.6,238.282,236.882,239.868,237.124z"/>
	<path style="fill:#B9EBFF;" d="M150.399,140.802c-0.076-0.975-0.142-1.954-0.192-2.937
		C150.257,138.848,150.323,139.827,150.399,140.802z"/>
	<path style="fill:#B9EBFF;" d="M205.035,225.295c-1.108-0.609-2.202-1.238-3.285-1.886
		C202.833,224.057,203.927,224.686,205.035,225.295z"/>
	<path style="fill:#B9EBFF;" d="M159.476,176.114c7.688,16.953,19.713,31.519,34.656,42.29
		C179.189,207.633,167.164,193.067,159.476,176.114z"/>
	<path style="fill:#B9EBFF;" d="M185.379,132.414c0,52.474,38.195,95.922,88.276,104.343c-5.753,0.968-11.626,1.588-17.655,1.588
		c58.504,0,105.931-47.427,105.931-105.931S314.504,26.483,256,26.483c6.029,0,11.902,0.621,17.655,1.588
		C223.574,36.492,185.379,79.938,185.379,132.414z M317.793,92.69c0,17.064-13.833,30.897-30.897,30.897
		c-17.064,0-30.897-13.833-30.897-30.897s13.833-30.897,30.897-30.897C303.96,61.793,317.793,75.626,317.793,92.69z"/>
	<path style="fill:#B9EBFF;" d="M200.209,222.471c-1.603-0.995-3.177-2.031-4.722-3.108
		C197.032,220.439,198.605,221.475,200.209,222.471z"/>
	<path style="fill:#B9EBFF;" d="M153.657,159.825c-1.236-4.625-2.169-9.373-2.772-14.223
		C151.488,150.453,152.422,155.2,153.657,159.825z"/>
	<path style="fill:#B9EBFF;" d="M159.297,175.713c-1.921-4.285-3.563-8.723-4.908-13.287
		C155.735,166.99,157.376,171.428,159.297,175.713z"/>
</g>
<path style="fill:#98D2EB;" d="M200.209,222.471c0.511,0.318,1.025,0.631,1.542,0.94c1.082,0.647,2.177,1.277,3.285,1.886
	c0.236,0.13,0.472,0.26,0.71,0.39c1.825,0.985,3.686,1.914,5.572,2.794c0.703,0.328,1.41,0.648,2.122,0.96
	c3.21,1.41,6.504,2.666,9.871,3.757c2.248,0.728,4.527,1.386,6.839,1.965c1.304,0.328,2.618,0.631,3.943,0.909
	c0.352,0.074,0.705,0.147,1.058,0.217c1.561,0.312,3.134,0.594,4.719,0.836c4.383,0.67,8.855,1.07,13.398,1.186
	c0.907,0.022,1.818,0.033,2.732,0.033c6.029,0,11.902-0.621,17.655-1.588c-50.081-8.422-88.276-51.868-88.276-104.343
	s38.195-95.922,88.276-104.343c-5.753-0.967-11.626-1.588-17.655-1.588c-0.914,0-1.825,0.011-2.734,0.034
	c-56.332,1.427-101.736,46.83-103.162,103.162c-0.023,0.909-0.034,1.821-0.034,2.734c0,1.828,0.046,3.646,0.138,5.451
	c0.05,0.983,0.116,1.962,0.192,2.937c0.126,1.61,0.289,3.21,0.487,4.799c0.602,4.851,1.537,9.599,2.772,14.223
	c0.233,0.872,0.477,1.739,0.732,2.602c1.346,4.564,2.987,9.002,4.908,13.287c0.06,0.134,0.118,0.267,0.179,0.401
	c7.688,16.953,19.713,31.519,34.656,42.29c0.449,0.323,0.902,0.642,1.355,0.959C197.032,220.439,198.605,221.475,200.209,222.471z"
	/>
<circle style="fill:#FFFFFF;" cx="286.897" cy="92.69" r="30.897"/>
<g>
	<path style="fill:#707384;" d="M229.876,497.903c-0.235-1.15-0.359-2.339-0.359-3.559
		C229.517,495.564,229.641,496.754,229.876,497.903z"/>
	<path style="fill:#707384;" d="M230.1,313.365c0.099-0.384,0.203-0.766,0.328-1.14C230.303,312.598,230.199,312.98,230.1,313.365z"
		/>
	<path style="fill:#707384;" d="M247.172,512c-1.218,0-2.409-0.124-3.559-0.359C244.764,511.876,245.954,512,247.172,512z"/>
	<path style="fill:#707384;" d="M241.329,301.149c0.744-0.262,1.501-0.492,2.285-0.652
		C242.829,300.658,242.072,300.888,241.329,301.149z"/>
	<path style="fill:#707384;" d="M229.876,497.903c1.411,6.895,6.842,12.328,13.738,13.738
		C236.718,510.23,231.287,504.799,229.876,497.903z"/>
	<path style="fill:#707384;" d="M256,317.793v176.552c0,8.217,5.64,15.062,13.241,17.031c-1.007,0.262-2.039,0.461-3.101,0.558
		c9.135-0.674,16.342-8.281,16.342-17.589V317.793c0-9.306-7.207-16.914-16.341-17.589c1.062,0.097,2.092,0.297,3.1,0.558
		C261.64,302.731,256,309.576,256,317.793z"/>
	<path style="fill:#707384;" d="M243.614,300.497c1.15-0.235,2.339-0.359,3.559-0.359
		C245.954,300.138,244.764,300.262,243.614,300.497z"/>
</g>
<path style="fill:#5B5C6C;" d="M247.172,300.138c-1.218,0-2.409,0.124-3.559,0.359c-0.785,0.161-1.543,0.392-2.285,0.652
	c-5.135,1.804-9.181,5.901-10.901,11.075c-0.125,0.374-0.228,0.756-0.328,1.14c-0.367,1.419-0.583,2.897-0.583,4.429v176.552
	c0,1.219,0.124,2.409,0.359,3.559c1.411,6.895,6.842,12.328,13.738,13.738c1.15,0.235,2.339,0.359,3.559,0.359h17.655
	c0.444,0,0.881-0.026,1.313-0.066c1.062-0.097,2.092-0.297,3.101-0.558C261.64,509.407,256,502.562,256,494.345V317.793
	c0-8.217,5.64-15.062,13.241-17.031c-1.007-0.262-2.038-0.461-3.1-0.558c-0.433-0.04-0.87-0.066-1.314-0.066H247.172z"/>
<g>
</g>
<g>
</g>
<g>
</g>
<g>
</g>
<g>
</g>
<g>
</g>
<g>
</g>
<g>
</g>
<g>
</g>
<g>
</g>
<g>
</g>
<g>
</g>
<g>
</g>
<g>
</g>
<g>
</g>
</svg>
