<?xml version="1.0" encoding="iso-8859-1"?>
<!-- Generator: Adobe Illustrator 19.0.0, SVG Export Plug-In . SVG Version: 6.00 Build 0)  -->
<svg version="1.1" id="Layer_1" xmlns="http://www.w3.org/2000/svg" xmlns:xlink="http://www.w3.org/1999/xlink" x="0px" y="0px"
	 viewBox="0 0 512 512" style="enable-background:new 0 0 512 512;" xml:space="preserve">
<g>
	<g>
		<path d="M159.728,267.964c-36.13,0-65.536,33.28-65.536,74.206s29.406,74.223,65.536,74.223c36.147,0,65.536-33.297,65.536-74.223
			S195.875,267.964,159.728,267.964z M159.728,382.276c-17.323,0-31.403-17.988-31.403-40.09c0-22.101,14.08-40.073,31.403-40.073
			c17.323,0,31.403,17.971,31.403,40.073C191.13,364.288,177.05,382.276,159.728,382.276z"/>
	</g>
</g>
<g>
	<g>
		<path d="M352.257,267.964c-36.13,0-65.536,33.28-65.536,74.206s29.406,74.223,65.536,74.223c36.13,0,65.536-33.297,65.536-74.223
			S388.387,267.964,352.257,267.964z M352.257,382.276c-17.323,0-31.403-17.988-31.403-40.09c0-22.101,14.08-40.073,31.403-40.073
			c17.323,0,31.403,17.971,31.403,40.073C383.659,364.288,369.579,382.276,352.257,382.276z"/>
	</g>
</g>
<g>
	<g>
		<path d="M255.796,76.459c-9.421,0-17.067,7.646-17.067,17.067v401.408c0,9.438,7.646,17.067,17.067,17.067
			c9.438,0,17.067-7.629,17.067-17.067V93.525C272.862,84.105,265.217,76.459,255.796,76.459z"/>
	</g>
</g>
<g>
	<g>
		<path d="M239.241,90.863c-2.731-9.199-8.636-18.654-16.589-26.624c-18.927-18.961-45.449-23.586-58.709-10.308
			c-13.79,13.79-9.37,39.031,10.291,58.709c11.503,11.503,25.771,18.381,38.178,18.381c8.038,0,15.326-2.884,20.514-8.055
			C240.692,115.2,242.996,103.509,239.241,90.863z"/>
	</g>
</g>
<g>
	<g>
		<path d="M345.703,53.931c-13.261-13.261-39.765-8.704-58.607,10.155c-19.593,19.593-23.962,44.783-10.155,58.607
			c5.239,5.222,12.527,8.09,20.582,8.09c12.373,0,26.59-6.827,38.007-18.244c7.953-7.953,13.824-17.391,16.538-26.59
			C355.789,73.353,353.451,61.679,345.703,53.931z"/>
	</g>
</g>
<g>
	<g>
		<path d="M183.211,0c-47.224,0-81.596,31.266-87.91,77.773c-0.717,1.877-1.109,3.925-1.109,6.059V334.37
			c0,9.438,7.646,17.067,17.067,17.067c9.421,0,17.067-7.629,17.067-17.067V95.027c0.051-0.495,0.068-1.007,0.068-1.519
			c0-36.062,21.521-59.375,54.818-59.375c31.761,0,54.818,21.146,54.818,50.278c0,9.421,7.646,17.067,17.067,17.067
			c9.421,0,17.067-7.646,17.067-17.067C272.163,36.284,233.933,0,183.211,0z"/>
	</g>
</g>
<g>
	<g>
		<path d="M417.793,92.774c-0.017-0.546-0.051-1.075-0.068-1.621c-0.051-2.389-0.171-4.745-0.358-7.066l-0.017-0.256
			C413.304,33.997,377.993,0,328.67,0c-50.756,0-89.037,36.284-89.037,84.412c0,9.421,7.646,17.067,17.067,17.067
			c9.421,0,17.067-7.646,17.067-17.067c0-29.133,23.091-50.278,54.903-50.278c30.413,0,51.576,20.429,54.579,51.593V334.37
			c0,9.438,7.629,17.067,17.067,17.067c9.421,0,17.067-7.629,17.067-17.05V97.348C417.707,95.863,417.861,94.327,417.793,92.774z"/>
	</g>
</g>
<g>
</g>
<g>
</g>
<g>
</g>
<g>
</g>
<g>
</g>
<g>
</g>
<g>
</g>
<g>
</g>
<g>
</g>
<g>
</g>
<g>
</g>
<g>
</g>
<g>
</g>
<g>
</g>
<g>
</g>
</svg>
