<?xml version="1.0" encoding="iso-8859-1"?>
<!-- Generator: Adobe Illustrator 19.0.0, SVG Export Plug-In . SVG Version: 6.00 Build 0)  -->
<svg version="1.1" id="Layer_1" xmlns="http://www.w3.org/2000/svg" xmlns:xlink="http://www.w3.org/1999/xlink" x="0px" y="0px"
	 viewBox="0 0 512 512" style="enable-background:new 0 0 512 512;" xml:space="preserve">


<path style="fill:#87B45F;" d="M415.701,78.102c-5.217,0-10.313,0.524-15.245,1.505l-3.468,37.456
	c5.669-2.722,12.017-4.249,18.714-4.249c23.924,0,43.39,19.466,43.39,43.39v78.102c0,23.924-19.466,43.39-43.39,43.39
	c-12.791,0-24.305-5.568-32.253-14.403l-3.732,40.297c10.778,5.621,23.012,8.818,35.984,8.818c43.063,0,78.102-35.034,78.102-78.102
	v-78.102C493.803,113.136,458.764,78.102,415.701,78.102z"/>

<g class="foo">
	<path style="fill:#A0C869;" d="M75.892,498.534c-0.027-0.118-0.065-0.232-0.09-0.351C75.826,498.302,75.865,498.416,75.892,498.534
		z"/>
	<path style="fill:#A0C869;" d="M76.509,500.599C78.958,507.305,85.37,512,92.794,512l0,0C85.37,512,78.958,507.305,76.509,500.599z
		"/>
	<path style="fill:#A0C869;" d="M194.894,477.288l2.141,19.273c0.976,8.79,8.407,15.439,17.25,15.439h116.457
		c8.844,0,16.273-6.65,17.25-15.439l2.389-21.501c-3.218,1.42-6.76,2.229-10.483,2.229H194.894V477.288z"/>
</g>

<path style="fill:#87B45F;" d="M197.036,496.561l-2.141-19.273h-8.799H83.639l0,0c-1.883,0-3.716-0.22-5.491-0.603
	c-1.735-0.373-3.402-0.924-4.992-1.626l2.389,21.501c0.061,0.549,0.148,1.09,0.257,1.622c0.025,0.119,0.063,0.233,0.09,0.351
	c0.163,0.708,0.371,1.395,0.616,2.065C78.958,507.305,85.37,512,92.794,512h121.492C205.443,512,198.012,505.35,197.036,496.561z"/>
<g>
	<path style="fill:#B4E173;" d="M396.987,117.063l3.468-37.456l4.812-51.972c0.943-10.174-7.064-18.956-17.281-18.956H138.007
		h-0.001v205.586l1.524,16.463l19.712,9.856c2.94,1.47,4.797,4.475,4.797,7.761v55.384c0,4.792-3.886,8.678-8.678,8.678h-8.269
		l13.079,141.247c1.24,13.391,12.475,23.634,25.923,23.634h8.799h145.003c3.723,0,7.265-0.809,10.483-2.229
		c8.407-3.708,14.543-11.722,15.439-21.405l13.895-150.066l3.732-40.297L396.987,117.063z"/>
	<path style="fill:#B4E173;" d="M62.917,467.017c2.328,3.056,5.317,5.561,8.738,7.339C68.234,472.578,65.245,470.072,62.917,467.017
		z"/>
	<path style="fill:#B4E173;" d="M18.314,24.017c-0.136,1.177-0.159,2.386-0.044,3.618l9.499,102.592L18.27,27.634
		C18.156,26.403,18.179,25.194,18.314,24.017z"/>
	<path style="fill:#B4E173;" d="M78.148,476.685c-2.186-0.471-4.28-1.196-6.231-2.181c0.402,0.204,0.824,0.373,1.239,0.555
		C74.746,475.761,76.413,476.312,78.148,476.685z"/>
</g>
<g>
	<polygon style="fill:#A7D16C;" points="139.53,230.729 138.006,214.264 138.006,229.966 	"/>
	<polygon style="fill:#A7D16C;" points="138.007,8.678 138.006,8.678 138.006,8.678 	"/>
	<path style="fill:#A7D16C;" d="M78.148,476.685c1.776,0.382,3.608,0.603,5.491,0.603l0,0h102.456
		c-13.448,0-24.683-10.243-25.923-23.634l-13.079-141.247h-43.799c-4.792,0-8.678-3.886-8.678-8.678v-55.383
		c0-3.287,1.857-6.292,4.797-7.761l21.237-10.619V8.678H35.552l0,0c-8.981,0-16.248,6.787-17.237,15.339
		c-0.136,1.177-0.158,2.386-0.044,3.618l9.499,102.593l29.947,323.428c0.465,5.021,2.335,9.601,5.201,13.363
		c2.328,3.056,5.317,5.562,8.738,7.339c0.089,0.047,0.172,0.102,0.263,0.148C73.866,475.489,75.962,476.214,78.148,476.685z"/>
</g>
<path style="fill:#E4EAF6;" d="M125.447,227.568c2.443-1.221,5.319-1.221,7.761,0l4.797,2.398v-15.702V8.678l0,0
	c0-4.792-3.886-8.678-8.678-8.678s-8.678,3.886-8.678,8.678v221.288L125.447,227.568z"/>
<path style="fill:#FFCD64;" d="M133.208,227.568c-2.443-1.221-5.319-1.221-7.761,0l-4.797,2.398l-21.237,10.619
	c-2.94,1.47-4.797,4.475-4.797,7.761v55.383c0,4.792,3.886,8.678,8.678,8.678h43.799h8.269c4.792,0,8.678-3.886,8.678-8.678v-55.383
	c0-3.287-1.857-6.292-4.797-7.761l-19.712-9.856l-1.525-0.763L133.208,227.568z"/>
<g>
</g>
<g>
</g>
<g>
</g>
<g>
</g>
<g>
</g>
<g>
</g>
<g>
</g>
<g>
</g>
<g>
</g>
<g>
</g>
<g>
</g>
<g>
</g>
<g>
</g>
<g>
</g>
<g>
</g>
</svg>
