<?xml version="1.0" encoding="iso-8859-1"?>
<!-- Generator: Adobe Illustrator 19.0.0, SVG Export Plug-In . SVG Version: 6.00 Build 0)  -->
<svg version="1.1" id="Layer_1" xmlns="http://www.w3.org/2000/svg" xmlns:xlink="http://www.w3.org/1999/xlink" x="0px" y="0px"
	 viewBox="0 0 512 512" style="enable-background:new 0 0 512 512;" xml:space="preserve">
<path style="fill:#FF5050;" d="M196.862,196.758c-0.598-3.239-1.097-6.511-1.495-9.816c-0.039-0.32-0.073-0.641-0.11-0.961
	c-0.128-1.121-0.246-2.246-0.351-3.373c-0.042-0.448-0.082-0.897-0.119-1.347c-0.086-1.024-0.161-2.051-0.228-3.081
	c-0.032-0.491-0.066-0.982-0.094-1.475c-0.058-1.044-0.102-2.092-0.14-3.142c-0.017-0.454-0.039-0.905-0.052-1.359
	c-0.041-1.489-0.066-2.982-0.066-4.48c0-1.498,0.025-2.991,0.066-4.48c0.012-0.455,0.035-0.907,0.052-1.361
	c0.038-1.049,0.082-2.097,0.14-3.14c0.028-0.493,0.062-0.984,0.094-1.476c0.067-1.03,0.142-2.056,0.228-3.079
	c0.038-0.45,0.077-0.899,0.119-1.348c0.105-1.127,0.223-2.25,0.351-3.37c0.038-0.321,0.072-0.643,0.11-0.964
	C200.585,105.233,223.192,67.32,256,41.953c-26.854-20.762-60.533-33.126-97.103-33.126C71.14,8.828,0,79.968,0,167.724
	c0,66.854,41.291,124.057,99.758,147.518C109.739,261.194,147.069,216.738,196.862,196.758z"/>
<g>
	<path style="fill:#5050FF;" d="M512,167.724C512,79.968,440.86,8.828,353.103,8.828c-36.57,0-70.25,12.363-97.103,33.126
		c-32.808,25.367-55.415,63.279-60.632,106.551c5.234-43.206,27.878-80.996,60.632-106.361
		c37.532,29.064,61.793,74.438,61.793,125.581c0,9.92-0.924,19.619-2.669,29.028c49.801,19.978,87.135,64.436,97.117,118.489
		C470.709,291.782,512,234.578,512,167.724z"/>
	<path style="fill:#5050FF;" d="M194.465,176.705c-0.058-1.044-0.102-2.092-0.14-3.142
		C194.362,174.613,194.407,175.661,194.465,176.705z"/>
	<path style="fill:#5050FF;" d="M194.786,181.261c-0.087-1.024-0.161-2.051-0.228-3.081
		C194.625,179.21,194.7,180.237,194.786,181.261z"/>
	<path style="fill:#5050FF;" d="M194.273,172.204c-0.041-1.489-0.066-2.982-0.066-4.48
		C194.207,169.223,194.232,170.716,194.273,172.204z"/>
	<path style="fill:#5050FF;" d="M195.257,185.981c-0.129-1.121-0.245-2.246-0.351-3.373
		C195.011,183.735,195.128,184.86,195.257,185.981z"/>
	<path style="fill:#5050FF;" d="M196.862,196.758c0.004-0.002,0.009-0.003,0.013-0.006c-0.6-3.238-1.109-6.507-1.508-9.811
		C195.765,190.247,196.265,193.519,196.862,196.758z"/>
	<path style="fill:#5050FF;" d="M194.325,161.885c0.039-1.049,0.082-2.097,0.14-3.14
		C194.407,159.787,194.362,160.835,194.325,161.885z"/>
	<path style="fill:#5050FF;" d="M194.558,157.267c0.067-1.03,0.141-2.056,0.228-3.079
		C194.7,155.212,194.625,156.238,194.558,157.267z"/>
	<path style="fill:#5050FF;" d="M194.906,152.84c0.105-1.127,0.222-2.25,0.351-3.37C195.128,150.59,195.011,151.713,194.906,152.84z
		"/>
	<path style="fill:#5050FF;" d="M194.207,167.724c0-1.498,0.025-2.991,0.066-4.48C194.232,164.733,194.207,166.226,194.207,167.724z
		"/>
</g>
<path style="fill:#78FF78;" d="M315.124,196.753c0,0-0.001,0.008-0.002,0.011c49.727,19.979,86.983,64.409,96.992,118.409
	c-18.259,7.316-38.137,11.448-59.01,11.448c-36.593,0-70.269-12.381-97.103-33.176c-26.835,20.796-60.511,33.176-97.103,33.176
	c-20.873,0-40.751-4.132-59.01-11.448c10.009-53.999,47.265-98.43,96.992-118.409c0-0.003-0.001-0.008-0.001-0.008
	c-0.006-0.002-0.01,0-0.014,0.001c-49.794,19.98-87.123,64.436-97.103,118.484c-1.739,9.416-2.656,19.117-2.656,29.035
	c0,87.756,71.14,158.897,158.897,158.897s158.897-71.14,158.897-158.897c0-9.918-0.917-19.619-2.655-29.034
	C402.26,261.188,364.925,216.73,315.124,196.753z"/>
<path style="fill:#FF78FF;" d="M194.906,152.84c-0.042,0.449-0.082,0.898-0.119,1.348c-0.087,1.023-0.161,2.05-0.228,3.079
	c-0.032,0.492-0.066,0.983-0.094,1.476c-0.058,1.044-0.102,2.092-0.14,3.14c-0.017,0.454-0.039,0.906-0.052,1.361
	c-0.041,1.489-0.066,2.982-0.066,4.48s0.025,2.991,0.066,4.48c0.012,0.455,0.035,0.906,0.052,1.359
	c0.038,1.049,0.082,2.098,0.14,3.142c0.028,0.493,0.062,0.983,0.094,1.475c0.067,1.03,0.142,2.057,0.228,3.081
	c0.038,0.449,0.077,0.898,0.119,1.347c0.105,1.128,0.222,2.252,0.351,3.373c0.036,0.321,0.071,0.642,0.11,0.961
	c0.401,3.304,0.908,6.573,1.508,9.811c0,0,0.001,0.008,0.002,0.011c15.966-6.414,33.217-10.308,51.265-11.188
	c0.033-0.001,0.066-0.004,0.099-0.006c1.13-0.054,2.264-0.095,3.401-0.126c0.008,0,0.017-0.001,0.024-0.001
	c0.142-0.003,0.284-0.012,0.426-0.015c0.025,0,0.051,0,0.075-0.001c1.273-0.03,2.55-0.047,3.831-0.047s2.558,0.018,3.831,0.047
	c0.175,0.004,0.35,0.013,0.525,0.018c1.137,0.031,2.271,0.072,3.401,0.126c0.033,0.001,0.066,0.004,0.099,0.006
	c18.049,0.879,35.299,4.774,51.265,11.188c0-0.003,0.001-0.008,0.001-0.008c1.747-9.413,2.67-19.113,2.67-29.033
	c0-51.143-24.262-96.518-61.793-125.581c-32.756,25.365-55.4,63.156-60.632,106.361c-0.039,0.321-0.074,0.643-0.11,0.964
	C195.128,150.59,195.011,151.713,194.906,152.84z"/>
<g>
	<path style="fill:#A0FFFF;" d="M252.169,185.427c-0.025,0-0.051,0-0.075,0.001c0.023,0,0.046,0,0.071-0.001
		C252.166,185.427,252.168,185.427,252.169,185.427z"/>
	<path style="fill:#A0FFFF;" d="M256,185.379c1.281,0,2.558,0.017,3.831,0.047C258.558,185.397,257.281,185.379,256,185.379z"/>
	<path style="fill:#A0FFFF;" d="M263.857,185.576c18.009,0.898,35.2,4.86,51.154,11.251c-0.285,1.536-0.599,3.061-0.928,4.582
		c-0.077,0.359-0.156,0.716-0.236,1.074c-0.695,3.114-1.482,6.193-2.357,9.234c-0.054,0.188-0.108,0.374-0.163,0.561
		c-9.508,32.61-29.161,60.892-55.327,81.169c26.836,20.796,60.512,33.176,97.105,33.176c20.873,0,40.751-4.132,59.01-11.448
		c-10.009-53.999-47.265-98.43-96.992-118.409C299.156,190.349,281.906,186.455,263.857,185.576z"/>
	<path style="fill:#A0FFFF;" d="M248.22,185.571c0.008,0,0.015-0.001,0.023-0.001c-0.033,0.001-0.066,0.004-0.099,0.006
		c0.008,0,0.015-0.001,0.023-0.001C248.184,185.574,248.202,185.572,248.22,185.571z"/>
	<path style="fill:#A0FFFF;" d="M260.356,185.444c1.137,0.031,2.271,0.071,3.401,0.126
		C262.627,185.516,261.493,185.475,260.356,185.444z"/>
	<path style="fill:#A0FFFF;" d="M251.668,185.443c-0.008,0-0.017,0-0.024,0.001c0,0,0,0,0.001,0
		C251.652,185.444,251.66,185.443,251.668,185.443z"/>
</g>
<g>
	<path style="fill:#FFFF50;" d="M311.327,212.276c-2.385,8.162-5.402,16.054-8.999,23.617c-0.087,0.182-0.169,0.366-0.256,0.548
		c-1.863,3.881-3.887,7.668-6.048,11.366c-0.313,0.532-0.65,1.049-0.969,1.578c-1.707,2.846-3.526,5.615-5.402,8.342
		c-0.701,1.013-1.384,2.039-2.108,3.034c-2.026,2.803-4.15,5.527-6.35,8.188c-1.221,1.471-2.5,2.892-3.774,4.318
		c-1.131,1.272-2.287,2.52-3.458,3.755c-5.352,5.62-11.091,10.867-17.206,15.662c-0.258,0.203-0.521,0.401-0.78,0.601
		c-30.205-23.401-51.785-57.375-59.06-96.408c15.977-6.421,33.198-10.403,51.251-11.303c-0.008,0-0.015,0.001-0.023,0.001
		c-18.049,0.879-35.299,4.774-51.265,11.188c-49.727,19.979-86.983,64.409-96.992,118.409c18.258,7.316,38.136,11.448,59.009,11.448
		c36.593,0,70.269-12.381,97.103-33.176C282.166,273.167,301.817,244.886,311.327,212.276z"/>
	<path style="fill:#FFFF50;" d="M256,185.379c-1.281,0-2.558,0.018-3.831,0.047c-0.002,0-0.003,0-0.006,0
		C253.439,185.396,254.718,185.379,256,185.379z"/>
	<path style="fill:#FFFF50;" d="M313.846,202.482c-0.696,3.113-1.481,6.193-2.357,9.234
		C312.364,208.673,313.151,205.594,313.846,202.482z"/>
	<path style="fill:#FFFF50;" d="M251.645,185.444C251.644,185.444,251.644,185.444,251.645,185.444
		c-1.138,0.031-2.271,0.072-3.402,0.126c-0.008,0-0.015,0.001-0.023,0.001C249.357,185.515,250.5,185.476,251.645,185.444z"/>
	<path style="fill:#FFFF50;" d="M315.01,196.828c-0.285,1.536-0.599,3.061-0.928,4.581
		C314.411,199.887,314.726,198.362,315.01,196.828z"/>
</g>
<path style="fill:#FFFFFF;" d="M248.22,185.571c-0.018,0.001-0.035,0.002-0.053,0.003c-18.052,0.899-35.273,4.882-51.251,11.303
	c7.275,39.034,28.856,73.009,59.06,96.408c0.259-0.202,0.522-0.398,0.78-0.601c6.115-4.796,11.854-10.043,17.206-15.662
	c1.172-1.235,2.327-2.483,3.458-3.755c1.273-1.426,2.552-2.847,3.774-4.318c2.2-2.66,4.324-5.386,6.35-8.188
	c0.724-0.995,1.406-2.022,2.108-3.034c1.877-2.727,3.694-5.496,5.402-8.342c0.319-0.529,0.657-1.045,0.969-1.578
	c2.161-3.698,4.184-7.485,6.048-11.366c0.087-0.182,0.17-0.366,0.256-0.548c3.596-7.564,6.613-15.456,8.999-23.617
	c0.054-0.186,0.109-0.374,0.163-0.561c0.876-3.041,1.661-6.121,2.357-9.234c0.081-0.358,0.159-0.715,0.236-1.074
	c0.329-1.519,0.643-3.046,0.928-4.582c-15.954-6.391-33.144-10.353-51.154-11.251c-0.033-0.001-0.066-0.004-0.099-0.006
	c-1.13-0.055-2.264-0.095-3.401-0.126c-0.175-0.004-0.35-0.013-0.525-0.018c-1.273-0.031-2.55-0.047-3.831-0.047
	c-1.282,0-2.561,0.017-3.837,0.047c-0.023,0-0.046,0-0.071,0.001c-0.142,0.003-0.284,0.012-0.426,0.015
	c-0.008,0-0.015,0.001-0.023,0.001C250.5,185.476,249.357,185.515,248.22,185.571z"/>
<g>
</g>
<g>
</g>
<g>
</g>
<g>
</g>
<g>
</g>
<g>
</g>
<g>
</g>
<g>
</g>
<g>
</g>
<g>
</g>
<g>
</g>
<g>
</g>
<g>
</g>
<g>
</g>
<g>
</g>
</svg>
