<svg xmlns="http://www.w3.org/2000/svg" style="display:none"><symbol id="loupe" viewbox="0 0 512 512"><path d="M264.828 264.527c-2.919.192-5.86.3-8.828.3-2.967 0-5.909-.108-8.828-.3v35.611h17.655v-35.611z" fill="#464655"/><path d="M264.828 264.527c69.013-4.544 123.586-61.951 123.586-132.114C388.414 59.284 329.13 0 256 0S123.586 59.284 123.586 132.414c0 70.163 54.573 127.57 123.586 132.114 2.919.192 5.86.3 8.828.3 2.967 0 5.909-.109 8.828-.301zm-105.352-88.413c-.061-.134-.118-.267-.179-.401a105.108 105.108 0 0 1-5.64-15.889 105.476 105.476 0 0 1-3.259-19.022 107.1 107.1 0 0 1-.296-11.122c1.427-56.332 46.83-101.736 103.162-103.162.909-.023 1.821-.034 2.734-.034 58.504 0 105.931 47.427 105.931 105.931S314.504 238.345 256 238.345a106.47 106.47 0 0 1-16.132-1.22 106.156 106.156 0 0 1-5.777-1.053 105.119 105.119 0 0 1-20.653-6.631 105.323 105.323 0 0 1-7.694-3.754c-.237-.128-.473-.259-.71-.39a103.375 103.375 0 0 1-4.827-2.826 106.136 106.136 0 0 1-6.077-4.067c-14.941-10.771-26.966-25.337-34.654-42.29z" fill="#707384"/><g fill="#b9ebff"><path d="M234.091 236.071zM211.317 228.479zM223.31 233.196zM239.868 237.124zM150.399 140.802zM205.035 225.295zM159.476 176.114c7.688 16.953 19.713 31.519 34.656 42.29-14.943-10.771-26.968-25.337-34.656-42.29zM185.379 132.414c0 52.474 38.195 95.922 88.276 104.343-5.753.968-11.626 1.588-17.655 1.588 58.504 0 105.931-47.427 105.931-105.931S314.504 26.483 256 26.483c6.029 0 11.902.621 17.655 1.588-50.081 8.421-88.276 51.867-88.276 104.343zM317.793 92.69c0 17.064-13.833 30.897-30.897 30.897s-30.897-13.833-30.897-30.897 13.833-30.897 30.897-30.897 30.897 13.833 30.897 30.897zM200.209 222.471zM153.657 159.825zM159.297 175.713z"/></g><path d="M200.209 222.471a104.207 104.207 0 0 0 4.827 2.826l.71.39a106.878 106.878 0 0 0 7.694 3.754 105.11 105.11 0 0 0 21.711 6.848c1.561.312 3.134.594 4.719.836a106.656 106.656 0 0 0 16.13 1.219c6.029 0 11.902-.621 17.655-1.588-50.081-8.422-88.276-51.868-88.276-104.343s38.195-95.922 88.276-104.343c-5.753-.967-11.626-1.588-17.655-1.588-.914 0-1.825.011-2.734.034-56.332 1.427-101.736 46.83-103.162 103.162a108.125 108.125 0 0 0 .296 11.122 105.416 105.416 0 0 0 3.991 21.624 105.263 105.263 0 0 0 4.908 13.287c.06.134.118.267.179.401 7.688 16.953 19.713 31.519 34.656 42.29.449.323.902.642 1.355.959a104.397 104.397 0 0 0 4.72 3.11z" fill="#98d2eb"/><circle cx="286.897" cy="92.69" r="30.897" fill="#fff"/><g fill="#707384"><path d="M229.876 497.903zM230.1 313.365zM247.172 512zM241.329 301.149zM229.876 497.903c1.411 6.895 6.842 12.328 13.738 13.738a17.675 17.675 0 0 1-13.738-13.738zM256 317.793v176.552c0 8.217 5.64 15.062 13.241 17.031a19.256 19.256 0 0 1-3.101.558c9.135-.674 16.342-8.281 16.342-17.589V317.793c0-9.306-7.207-16.914-16.341-17.589 1.062.097 2.092.297 3.1.558-7.601 1.969-13.241 8.814-13.241 17.031zM243.614 300.497z"/></g><path d="M247.172 300.138c-1.218 0-2.409.124-3.559.359a17.61 17.61 0 0 0-2.285.652 17.677 17.677 0 0 0-10.901 11.075c-.125.374-.228.756-.328 1.14a17.639 17.639 0 0 0-.583 4.429v176.552c0 1.219.124 2.409.359 3.559 1.411 6.895 6.842 12.328 13.738 13.738 1.15.235 2.339.359 3.559.359h17.655c.444 0 .881-.026 1.313-.066a19.407 19.407 0 0 0 3.101-.558c-7.601-1.97-13.241-8.815-13.241-17.032V317.793c0-8.217 5.64-15.062 13.241-17.031a19.244 19.244 0 0 0-3.1-.558c-.433-.04-.87-.066-1.314-.066h-17.655z" fill="#5b5c6c"/></symbol><symbol id="rgb" viewbox="0 0 512 512"><path d="M196.862 196.758a158.294 158.294 0 0 1-1.495-9.816c-.039-.32-.073-.641-.11-.961a163.147 163.147 0 0 1-.47-4.72 164.075 164.075 0 0 1-.228-3.081c-.032-.491-.066-.982-.094-1.475a162.853 162.853 0 0 1-.14-3.142c-.017-.454-.039-.905-.052-1.359a162.708 162.708 0 0 1-.066-4.48c0-1.498.025-2.991.066-4.48.012-.455.035-.907.052-1.361.038-1.049.082-2.097.14-3.14.028-.493.062-.984.094-1.476a163.24 163.24 0 0 1 .347-4.427c.105-1.127.223-2.25.351-3.37.038-.321.072-.643.11-.964C200.585 105.233 223.192 67.32 256 41.953c-26.854-20.762-60.533-33.126-97.103-33.126C71.14 8.828 0 79.968 0 167.724c0 66.854 41.291 124.057 99.758 147.518 9.981-54.048 47.311-98.504 97.104-118.484z" fill="#ff5050"/><g fill="#5050ff"><path d="M512 167.724C512 79.968 440.86 8.828 353.103 8.828c-36.57 0-70.25 12.363-97.103 33.126-32.808 25.367-55.415 63.279-60.632 106.551 5.234-43.206 27.878-80.996 60.632-106.361 37.532 29.064 61.793 74.438 61.793 125.581 0 9.92-.924 19.619-2.669 29.028 49.801 19.978 87.135 64.436 97.117 118.489C470.709 291.782 512 234.578 512 167.724zM194.465 176.705zM194.786 181.261zM194.273 172.204zM195.257 185.981zM196.862 196.758c.004-.002.009-.003.013-.006-.6-3.238-1.109-6.507-1.508-9.811.398 3.306.898 6.578 1.495 9.817zM194.325 161.885zM194.558 157.267zM194.906 152.84zM194.207 167.724z"/></g><path d="M315.124 196.753l-.002.011c49.727 19.979 86.983 64.409 96.992 118.409-18.259 7.316-38.137 11.448-59.01 11.448-36.593 0-70.269-12.381-97.103-33.176-26.835 20.796-60.511 33.176-97.103 33.176-20.873 0-40.751-4.132-59.01-11.448 10.009-53.999 47.265-98.43 96.992-118.409l-.001-.008c-.006-.002-.01 0-.014.001-49.794 19.98-87.123 64.436-97.103 118.484a159.737 159.737 0 0 0-2.656 29.035c0 87.756 71.14 158.897 158.897 158.897S414.9 432.033 414.9 344.276c0-9.918-.917-19.619-2.655-29.034-9.985-54.054-47.32-98.512-97.121-118.489z" fill="#78ff78"/><path d="M194.906 152.84a155.847 155.847 0 0 0-.347 4.427c-.032.492-.066.983-.094 1.476a163.364 163.364 0 0 0-.14 3.14c-.017.454-.039.906-.052 1.361-.041 1.489-.066 2.982-.066 4.48s.025 2.991.066 4.48c.012.455.035.906.052 1.359.038 1.049.082 2.098.14 3.142.028.493.062.983.094 1.475a164.075 164.075 0 0 0 .347 4.428c.105 1.128.222 2.252.351 3.373.036.321.071.642.11.961a158.918 158.918 0 0 0 1.51 9.822c15.966-6.414 33.217-10.308 51.265-11.188l.099-.006c1.13-.054 2.264-.095 3.401-.126l.024-.001c.142-.003.284-.012.426-.015l.075-.001c1.273-.03 2.55-.047 3.831-.047s2.558.018 3.831.047c.175.004.35.013.525.018 1.137.031 2.271.072 3.401.126l.099.006c18.049.879 35.299 4.774 51.265 11.188l.001-.008a158.964 158.964 0 0 0 2.67-29.033c0-51.143-24.262-96.518-61.793-125.581-32.756 25.365-55.4 63.156-60.632 106.361-.039.321-.074.643-.11.964a171.035 171.035 0 0 0-.349 3.372z" fill="#ff78ff"/><g fill="#a0ffff"><path d="M252.169 185.427l-.075.001.071-.001h.004zM256 185.379zM263.857 185.576c18.009.898 35.2 4.86 51.154 11.251a158.034 158.034 0 0 1-1.164 5.656 157.334 157.334 0 0 1-2.52 9.795c-9.508 32.61-29.161 60.892-55.327 81.169 26.836 20.796 60.512 33.176 97.105 33.176 20.873 0 40.751-4.132 59.01-11.448-10.009-53.999-47.265-98.43-96.992-118.409-15.967-6.417-33.217-10.311-51.266-11.19zM248.22 185.571l.023-.001-.099.006.023-.001.053-.004zM260.356 185.444zM251.668 185.443l-.024.001h.001l.023-.001z"/></g><g fill="#ffff50"><path d="M311.327 212.276a158.451 158.451 0 0 1-8.999 23.617c-.087.182-.169.366-.256.548a158.37 158.37 0 0 1-6.048 11.366c-.313.532-.65 1.049-.969 1.578-1.707 2.846-3.526 5.615-5.402 8.342-.701 1.013-1.384 2.039-2.108 3.034a159.443 159.443 0 0 1-6.35 8.188c-1.221 1.471-2.5 2.892-3.774 4.318a160.794 160.794 0 0 1-20.664 19.417c-.258.203-.521.401-.78.601-30.205-23.401-51.785-57.375-59.06-96.408 15.977-6.421 33.198-10.403 51.251-11.303l-.023.001c-18.049.879-35.299 4.774-51.265 11.188-49.727 19.979-86.983 64.409-96.992 118.409 18.258 7.316 38.136 11.448 59.009 11.448 36.593 0 70.269-12.381 97.103-33.176 26.166-20.277 45.817-48.558 55.327-81.168zM256 185.379c-1.281 0-2.558.018-3.831.047h-.006c1.276-.03 2.555-.047 3.837-.047zM313.846 202.482zM251.645 185.444c-.001 0-.001 0 0 0a166.21 166.21 0 0 0-3.402.126l-.023.001c1.137-.056 2.28-.095 3.425-.127zM315.01 196.828z"/></g><path d="M248.22 185.571l-.053.003c-18.052.899-35.273 4.882-51.251 11.303 7.275 39.034 28.856 73.009 59.06 96.408.259-.202.522-.398.78-.601a161.005 161.005 0 0 0 20.664-19.417c1.273-1.426 2.552-2.847 3.774-4.318 2.2-2.66 4.324-5.386 6.35-8.188.724-.995 1.406-2.022 2.108-3.034 1.877-2.727 3.694-5.496 5.402-8.342.319-.529.657-1.045.969-1.578a158.772 158.772 0 0 0 6.048-11.366c.087-.182.17-.366.256-.548a158.755 158.755 0 0 0 8.999-23.617l.163-.561a157.536 157.536 0 0 0 2.593-10.308c.329-1.519.643-3.046.928-4.582-15.954-6.391-33.144-10.353-51.154-11.251l-.099-.006c-1.13-.055-2.264-.095-3.401-.126-.175-.004-.35-.013-.525-.018a157.355 157.355 0 0 0-7.739.001c-.142.003-.284.012-.426.015l-.023.001c-1.143.035-2.286.074-3.423.13z" fill="#fff"/></symbol><symbol id="tea-cup" viewbox="0 0 512 512"><path d="M415.701 78.102c-5.217 0-10.313.524-15.245 1.505l-3.468 37.456a43.123 43.123 0 0 1 18.714-4.249c23.924 0 43.39 19.466 43.39 43.39v78.102c0 23.924-19.466 43.39-43.39 43.39-12.791 0-24.305-5.568-32.253-14.403l-3.732 40.297a77.592 77.592 0 0 0 35.984 8.818c43.063 0 78.102-35.034 78.102-78.102v-78.102c0-43.068-35.039-78.102-78.102-78.102z" fill="#87b45f"/><g class="foo" fill="#a0c869"><path d="M75.892 498.534c-.027-.118-.065-.232-.09-.351.024.119.063.233.09.351zM76.509 500.599C78.958 507.305 85.37 512 92.794 512c-7.424 0-13.836-4.695-16.285-11.401zM194.894 477.288l2.141 19.273c.976 8.79 8.407 15.439 17.25 15.439h116.457c8.844 0 16.273-6.65 17.25-15.439l2.389-21.501a25.903 25.903 0 0 1-10.483 2.229H194.894v-.001z"/></g><path d="M197.036 496.561l-2.141-19.273H83.639c-1.883 0-3.716-.22-5.491-.603a25.75 25.75 0 0 1-4.992-1.626l2.389 21.501c.061.549.148 1.09.257 1.622.025.119.063.233.09.351.163.708.371 1.395.616 2.065C78.958 507.305 85.37 512 92.794 512h121.492c-8.843 0-16.274-6.65-17.25-15.439z" fill="#87b45f"/><g fill="#b4e173"><path d="M396.987 117.063l3.468-37.456 4.812-51.972c.943-10.174-7.064-18.956-17.281-18.956H138.006v205.586l1.524 16.463 19.712 9.856a8.678 8.678 0 0 1 4.797 7.761v55.384a8.679 8.679 0 0 1-8.678 8.678h-8.269l13.079 141.247c1.24 13.391 12.475 23.634 25.923 23.634h153.802c3.723 0 7.265-.809 10.483-2.229 8.407-3.708 14.543-11.722 15.439-21.405l13.895-150.066 3.732-40.297 13.542-146.228zM62.917 467.017zM18.314 24.017a17.387 17.387 0 0 0-.044 3.618l9.499 102.592L18.27 27.634a17.516 17.516 0 0 1 .044-3.617zM78.148 476.685a25.918 25.918 0 0 1-6.231-2.181c.402.204.824.373 1.239.555a25.75 25.75 0 0 0 4.992 1.626z"/></g><g fill="#a7d16c"><path d="M139.53 230.729l-1.524-16.465v15.702zM138.007 8.678h-.001z"/><path d="M78.148 476.685a26.06 26.06 0 0 0 5.491.603h102.456c-13.448 0-24.683-10.243-25.923-23.634l-13.079-141.247h-43.799a8.679 8.679 0 0 1-8.678-8.678v-55.383a8.675 8.675 0 0 1 4.797-7.761l21.237-10.619V8.678H35.552c-8.981 0-16.248 6.787-17.237 15.339a17.456 17.456 0 0 0-.044 3.618l9.499 102.593 29.947 323.428a25.94 25.94 0 0 0 5.201 13.363 26.115 26.115 0 0 0 8.738 7.339c.089.047.172.102.263.148a25.925 25.925 0 0 0 6.229 2.179z"/></g><path d="M125.447 227.568a8.68 8.68 0 0 1 7.761 0l4.797 2.398V8.678a8.679 8.679 0 0 0-17.356 0v221.288l4.798-2.398z" fill="#e4eaf6"/><path d="M133.208 227.568a8.68 8.68 0 0 0-7.761 0l-4.797 2.398-21.237 10.619a8.678 8.678 0 0 0-4.797 7.761v55.383a8.679 8.679 0 0 0 8.678 8.678h52.068a8.679 8.679 0 0 0 8.678-8.678v-55.383a8.675 8.675 0 0 0-4.797-7.761l-19.712-9.856-1.525-.763-4.798-2.398z" fill="#ffcd64"/></symbol></svg>